<?xml version="1.0" encoding="UTF-8"?>
<svg width="1000px" height="477px" viewBox="0 0 1000 477" version="1.1" xmlns="http://www.w3.org/2000/svg" xmlns:xlink="http://www.w3.org/1999/xlink">
    <!-- Generator: Sketch 52.5 (67469) - http://www.bohemiancoding.com/sketch -->
    <title>collective fullstack logo 2 copy 4</title>
    <desc>Created with Sketch.</desc>
    <g id="collective-fullstack-logo-2-copy-4" stroke="none" stroke-width="1" fill="none" fill-rule="evenodd">
        <g id="Group" transform="translate(41.000000, 118.000000)">
            <path d="M76.1944302,203.569267 L66.7459215,200.136557 C64.6219773,206.142946 61.1068043,211.80214 54.8817514,213.6251 C52.2359795,214.399535 49.564477,214.555283 46.9454797,214.227601 C48.4140596,218.959083 50.5079786,223.437069 53.3645811,227.278382 C56.1633642,231.038417 60.2609115,234.108217 65.1715281,233.630155 C68.4452726,233.310552 70.5919902,230.681214 72.0946925,227.219296 C75.1984349,220.065263 75.904236,211.71908 76.1944302,203.569267 Z M84.0450389,206.42145 C83.8528414,209.235082 83.6004929,212.042223 83.2442073,214.838039 C82.0339952,224.353612 79.9221618,237.148473 69.5991333,240.962223 C57.993441,245.245977 47.5899106,235.496744 42.9127496,225.822712 C40.7054807,221.260751 38.8954141,216.245437 37.6446644,211.064587 C33.2334264,208.619252 29.337984,205.077404 26.462428,201.310524 C22.1222415,195.626782 19.1167835,189.008118 17.0598026,182.085234 L0,175.887286 L0,137.204661 L14.7243556,131.859025 L0,126.505326 L0,87.8253886 L14.5173111,82.5576929 L0,77.2819343 L0,38.5993094 L106.324044,0 L242,49.2072661 L242,87.9248298 L227.525711,93.1844628 L242,98.4333453 L242,137.150909 L227.315978,142.485795 L242,147.812618 L242,186.530182 L135.657133,225.172492 L84.0450389,206.42145 Z M44.1271625,191.919 C44.0932598,192.618337 44.0781706,193.319223 44.0773439,194.020875 C44.072154,197.64137 44.3251522,201.428467 44.8993418,205.206393 C45.5692732,205.410226 46.2549869,205.577535 46.9593729,205.704736 C48.8743495,206.052499 51.233922,206.098328 52.318629,205.777523 C53.3551268,205.47559 54.2898496,204.995731 55.2245724,204.038709 C56.2476788,202.984638 57.0672352,201.790383 57.8894699,200.094702 C58.3221598,199.202276 58.7159805,198.285981 59.0747786,197.349575 L44.1271625,191.919 Z M36.1383233,189.016597 L26.9758292,185.687798 C29.056194,191.007918 31.8974923,196.059066 35.8804514,199.825526 C35.6239461,196.171425 35.6918949,192.536477 36.1383233,189.016597 Z M87.4533318,149.521366 C91.8507501,145.921183 97.5908913,144.278884 103.308099,142.323727 C103.844908,140.237397 105.563288,139.182232 107.599333,139.904854 C110.067454,140.782495 112.067114,143.934143 112.067114,146.94956 C112.067114,149.962358 110.067454,151.696681 107.599333,150.81904 C107.092791,150.639456 106.606095,150.363759 106.152433,150.012918 C103.207294,150.979581 99.9348963,151.824394 97.0626647,153.012299 L131.532378,165.534651 L131.532378,141.378504 L72.4067455,119.896431 C71.8997538,127.855309 71.823843,135.842462 71.7731284,143.824973 L87.4533318,149.521366 Z M77.9644188,171.293097 L71.371269,168.898044 C71.0699871,176.714807 70.4351471,184.532863 68.8845366,192.153495 L76.4390705,194.898114 C76.4711324,193.886716 76.5081825,192.886958 76.5544985,191.901827 C76.8647305,185.301768 76.9790945,178.180615 77.9644188,171.293097 Z M86.046311,174.228956 C85.0123881,182.035695 84.8126437,189.935688 84.490794,197.823365 L131.532378,214.913924 L131.532378,190.752401 L86.046311,174.228956 Z M38.1157952,180.974982 C38.8805029,179.347257 39.9450163,177.883135 41.4717654,176.724716 C44.2896807,174.581887 48.5225613,173.660838 52.1088326,172.530606 C52.5977298,170.338751 54.3510845,169.209786 56.4382589,169.952772 C58.9063802,170.827793 60.9060403,173.984681 60.9060403,176.997479 C60.9060403,180.010276 58.9063802,181.74198 56.4382589,180.866959 C55.9936847,180.7084 55.5643969,180.476145 55.1593129,180.18428 C54.6478322,180.370121 54.1363514,180.554373 53.6248706,180.742581 C51.8913961,181.371044 50.1552382,182.007564 48.4217637,182.636027 C48.4492455,182.62968 46.0552322,183.763462 45.7897658,183.762993 L45.7666533,183.754596 C45.7561903,183.728931 45.860162,183.642642 46.1274592,183.471292 C45.3197567,183.992325 46.6668221,182.842829 45.9959728,183.619008 C46.2987257,183.267313 46.1877334,183.51224 45.9937558,183.837104 L61.2915648,189.394912 C62.6288544,182.509744 62.8386012,175.16847 63.1121332,168.534556 C63.1479023,167.667503 63.1803167,166.800406 63.2097714,165.933267 L21.2728781,150.699109 C20.9165479,158.208132 21.7084127,165.848252 23.2672293,173.006947 C23.4676708,173.927758 23.6830197,174.866065 23.9155084,175.815912 L38.1157952,180.974982 Z M79.6460006,163.142955 C80.307389,160.802607 81.1333854,158.530281 82.1720491,156.359976 L71.7079711,152.558489 C71.6998422,153.309169 71.6906245,154.059701 71.6799794,154.810057 C71.6542832,156.607447 71.6295207,158.41136 71.5984094,160.21931 L79.6460006,163.142955 Z M87.5029952,165.997357 L135.654444,183.490506 L225.820956,150.6991 L215.259,146.866583 L135.657133,175.790532 L89.8733808,159.157787 C88.7904898,161.241939 88.0480021,163.677924 87.5029952,165.997357 Z M37.02419,124.755475 C33.925869,125.766043 30.5025679,126.712803 28.3678562,128.05646 L63.5901089,140.852199 C63.6335615,136.700023 63.6963882,132.547882 63.8218798,128.396261 C63.9351247,124.687227 64.0052841,120.815291 64.254671,116.934544 L8.24413333,96.5842766 L8.24413333,120.745799 L19.9139458,124.985275 C21.0823385,123.349655 22.4967688,121.917729 24.2689094,120.90723 C27.3403305,119.156887 30.9074795,118.106175 34.33035,116.972544 C34.9169827,115.00386 36.5953586,114.027383 38.575164,114.731254 C41.0432853,115.608733 43.0402685,118.76242 43.0402685,121.777283 C43.0402685,124.789526 41.0406084,126.52353 38.575164,125.643431 C38.0297929,125.450117 37.5072949,125.145408 37.02419,124.755475 Z M74.5554513,104.366302 C73.9226168,106.676362 73.4904518,109.036718 73.1753221,111.414327 L135.654444,134.111234 L225.820956,101.319828 L215.463356,97.5652506 L135.657133,126.564453 L74.5554513,104.366302 Z M66.7923823,101.54599 L26.5769778,86.9357931 L16.1790444,90.7091833 L65.1697889,108.506142 C65.5606815,106.133675 66.0836767,103.80124 66.7923701,101.545985 L66.7923823,101.54599 Z M70.458629,94.1213546 C74.2993857,89.6548761 80.5111949,88.1658458 86.2575632,86.2784915 C86.7979236,84.1998626 88.5135693,83.1489055 90.5456414,83.8722163 C93.0137627,84.7524044 95.0134228,87.9064121 95.0134228,90.9163413 C95.0134228,93.9288901 93.0137627,95.6630704 90.5456414,94.7855019 C90.0602845,94.6129277 89.5931472,94.3523206 89.1558331,94.0220679 C86.2969197,95.0667364 83.4394097,96.1128176 80.5799334,97.1569195 C80.2870707,97.2643398 79.994208,97.3717601 79.7013453,97.479101 L131.532378,116.308572 L131.532378,92.1497368 L8.24413333,47.3608849 L8.24413333,71.5197202 L70.458629,94.1213546 Z M13.1467707,147.747188 L8.24413333,145.966237 L8.24413333,170.122384 L14.8047019,172.505888 C14.3863923,170.184458 14.0514134,167.861168 13.7860867,165.558354 C13.1317308,159.886325 12.7679348,153.773147 13.1467707,147.747188 Z M63.4204837,157.248316 C63.46201,154.692777 63.489284,152.13701 63.512404,149.581128 L26.7813333,136.237125 L23.2172754,137.530882 C23.2133851,137.545777 23.2095029,137.560677 23.2056287,137.575581 C22.8041694,139.119166 22.467025,140.685917 22.1903381,142.269637 L63.4204837,157.248316 L63.4204837,157.248316 Z M43.0402685,170.500834 C43.0402685,173.513632 41.0406084,175.245335 38.575164,174.370314 C36.1070427,173.490053 34.1073826,170.338405 34.1073826,167.325608 C34.1073826,164.31281 36.1070427,162.578487 38.575164,163.456128 C41.0406084,164.331149 43.0402685,167.488037 43.0402685,170.500834 Z M95.0134228,189.989829 C95.0134228,193.002626 93.0137627,194.73695 90.5456414,193.859309 C88.0775201,192.981668 86.0805369,189.827399 86.0805369,186.814602 C86.0805369,183.801804 88.080197,182.070101 90.5456414,182.945122 C93.0110858,183.820143 95.0134228,186.977031 95.0134228,189.989829 Z M25.9865772,115.278757 C25.9865772,118.291306 23.98484,120.025487 21.5201342,119.147918 C19.0554284,118.270349 17.0536913,115.116342 17.0536913,112.103793 C17.0536913,109.091244 19.0527523,107.357064 21.5201342,108.234632 C23.9875161,109.114821 25.9865772,112.266209 25.9865772,115.278757 Z M60.9060403,127.459099 C60.9060403,130.472285 58.9063802,132.206832 56.4382589,131.329078 C53.9701375,130.453944 51.9731544,127.296649 51.9731544,124.283462 C51.9731544,121.270276 53.9728145,119.538349 56.4382589,120.416104 C58.9037032,121.293858 60.9060403,124.445913 60.9060403,127.459099 Z M95.0134228,140.452916 C95.0134228,143.465713 93.0137627,145.200037 90.5456414,144.322396 C88.0775201,143.447375 86.0805369,140.290487 86.0805369,137.277689 C86.0805369,134.264892 88.080197,132.533188 90.5456414,133.408209 C93.0137627,134.28847 95.0134228,137.440118 95.0134228,140.452916 Z M106.324044,8.75620038 L16.1790444,41.4804164 L135.654444,84.8851544 L225.818267,52.0937483 L106.324044,8.75620038 Z M25.9865772,65.7415064 C25.9865772,68.754304 23.98484,70.4886274 21.5201342,69.6109864 C19.0554284,68.7333454 17.0536913,65.5790773 17.0536913,62.5662798 C17.0536913,59.5534823 19.0527523,57.8217787 21.5201342,58.6967999 C23.9875161,59.5744409 25.9865772,62.7260891 25.9865772,65.7415064 Z M43.0402685,72.238489 C43.0402685,75.2510378 41.0406084,76.9852181 38.575164,76.1076495 C36.1097196,75.2300809 34.1073826,72.0760733 34.1073826,69.0635245 C34.1073826,66.0509756 36.1070427,64.3167953 38.575164,65.1943639 C41.0432853,66.0719325 43.0402685,69.2259401 43.0402685,72.238489 Z M60.9060403,78.7351333 C60.9060403,81.7476821 58.9063802,83.4818624 56.4382589,82.6042938 C53.9701375,81.7267252 51.9731544,78.5727176 51.9731544,75.5601688 C51.9731544,72.5476199 53.9728145,70.8134396 56.4382589,71.6910082 C58.9037032,72.5685768 60.9060403,75.7225844 60.9060403,78.7351333 Z M112.067114,195.674993 C112.067114,198.688039 110.067454,200.419886 107.60201,199.544792 C105.136565,198.669699 103.134228,195.51255 103.134228,192.499504 C103.134228,189.486458 105.133888,187.754611 107.60201,188.629705 C110.070131,189.510038 112.067114,192.661946 112.067114,195.674993 Z M77.9597315,84.4206343 C77.9597315,87.4335714 75.9600714,89.1679752 73.4946271,88.2876736 C71.0265057,87.4126118 69.0268456,84.2581977 69.0268456,81.2452606 C69.0268456,78.2323235 71.0291827,76.4979197 73.4946271,77.3756013 C75.9600714,78.2506631 77.9597315,81.4050772 77.9597315,84.4206343 Z M112.067114,97.4129856 C112.067114,100.425534 110.067454,102.159715 107.60201,101.282146 C105.133888,100.404578 103.134228,97.2505699 103.134228,94.2380211 C103.134228,91.2254723 105.136565,89.491292 107.60201,90.3688606 C110.067454,91.2438095 112.067114,94.4004368 112.067114,97.4129856 Z" id="Shape" fill="#FF4019"></path>
            <path d="M297.551136,49.260129 C297.551136,19.9847742 318.89232,0 348.796325,0 C362.826178,0 373.16743,2.80722581 378.173387,6.61703226 L379.029669,27.3370323 L376.329087,27.3370323 C372.903959,12.2314839 363.814195,4.07716129 349.850211,4.07716129 C330.880269,4.07716129 319.485131,21.5889032 319.485131,47.8565161 C319.485131,73.4557419 330.089855,95.3788387 349.850211,95.3788387 C362.957913,95.3788387 372.640488,88.5612903 376.592559,71.8516129 L379.227273,71.8516129 L378.436859,92.6384516 C373.16743,96.5150968 360.91601,99.456 348.796325,99.456 C319.024056,99.456 297.551136,79.8054194 297.551136,49.260129 Z M420.791484,99.456 C401.265207,99.456 386.329545,86.0238041 386.329545,64.9935984 C386.329545,44.4382684 401.39452,30.192 421.114766,30.192 C440.641043,30.192 455.576705,43.6241959 455.576705,64.5865622 C455.576705,85.1418923 440.447073,99.456 420.791484,99.456 Z M421.270191,95.904 C430.71875,95.904 436.045455,84.4691561 436.045455,66.2135282 C436.045455,47.3560664 430.021205,35.52 420.762886,35.52 C411.1875,35.52 405.860795,46.9548439 405.860795,65.1436013 C405.860795,84.0010631 411.885045,95.904 421.270191,95.904 Z M492.27178,0 L492.27178,89.4503662 C492.27178,94.1863662 493.389731,95.4537465 499.965909,96.5877183 L499.965909,99.456 L466.230114,99.456 L466.230114,96.5877183 C472.806292,95.4537465 473.990004,94.1863662 473.990004,89.4503662 L473.990004,13.0740282 C473.990004,9.00507042 473.46391,8.20461972 469.847012,6.93723944 L466.230114,5.80326761 L466.230114,3.13509859 L492.27178,0 Z M531.33428,0 L531.33428,89.4503662 C531.33428,94.1863662 532.452231,95.4537465 539.028409,96.5877183 L539.028409,99.456 L505.292614,99.456 L505.292614,96.5877183 C511.868792,95.4537465 513.052504,94.1863662 513.052504,89.4503662 L513.052504,13.0740282 C513.052504,9.00507042 512.52641,8.20461972 508.909512,6.93723944 L505.292614,5.80326761 L505.292614,3.13509859 L531.33428,0 Z M546.130682,64.9257591 C546.130682,44.6417865 558.940276,30.192 578.581654,30.192 C596.055254,30.192 606.5,41.5890147 606.5,58.0739824 C606.5,59.634288 606.36862,61.2624329 606.171549,62.3478629 L564.786706,62.3478629 C566.03482,80.3252968 575.756974,91.3152752 589.486231,91.3152752 C596.318015,91.3152752 601.835994,88.6695397 605.317576,85.0062135 L605.317576,87.9911459 C600.78495,94.9786014 591.325558,99.456 579.698388,99.456 C560.713912,99.456 546.130682,86.0238041 546.130682,64.9257591 Z M565.661932,59.6326154 L565.661932,60.384 L590.391753,60.1107692 C590.455819,59.0178462 590.519886,57.72 590.519886,56.0806154 C590.519886,43.8535385 586.93214,35.52 579.30818,35.52 C570.659149,35.52 565.661932,44.1267692 565.661932,59.6326154 Z M647.517419,99.456 C629.407022,99.456 615.377841,85.8881254 615.377841,64.9257591 C615.377841,44.6417865 629.598329,30.192 648.984106,30.192 C663.587207,30.192 671.494564,37.654331 671.494564,46.4734496 C671.494564,51.6970813 667.795962,55.4282468 663.332131,55.4282468 C658.676994,55.4282468 655.042161,51.6292419 655.042161,46.7448071 C655.042161,41.9282116 658.549456,38.1292067 662.885748,38.1292067 C663.140824,38.1292067 663.332131,38.197046 663.587207,38.197046 C660.972678,36.1618648 657.465383,34.9407561 653.256629,34.9407561 C641.395594,34.9407561 633.679545,45.3880196 633.679545,61.1945935 C633.679545,80.1217786 644.010123,91.1117571 656.891462,91.1117571 C663.3959,91.1117571 668.816266,88.6017003 672.132254,85.1418923 L672.196023,88.0589853 C667.732193,94.910762 658.676994,99.456 647.517419,99.456 Z M688.990841,80.1268143 L688.990841,39.516 L681.073864,39.516 L681.073864,37.2381498 L705.704459,19.536 L707.734453,19.536 L707.734453,35.0904625 L724.515738,34.1793225 L724.515738,39.516 L707.734453,38.6699414 L707.734453,80.1268143 C707.734453,88.9778893 711.726775,92.2970423 717.410758,92.2970423 C720.591082,92.2970423 723.568407,91.190658 725.463068,89.4985407 L725.463068,92.3621238 C722.756409,95.9416026 715.719096,99.456 707.802119,99.456 C697.313817,99.456 688.990841,93.9891596 688.990841,80.1268143 Z M742.366737,21.312 C736.929466,21.312 732.565341,17.8003636 732.565341,13.2594545 C732.565341,8.77909091 736.929466,5.328 742.366737,5.328 C747.732465,5.328 752.096591,8.77909091 752.096591,13.2594545 C752.096591,17.8003636 747.732465,21.312 742.366737,21.312 Z M753.280303,33.744 L753.280303,89.5596145 C753.280303,94.2439036 754.398253,95.4974458 760.974432,96.6190361 L760.974432,99.456 L727.238636,99.456 L727.238636,96.6190361 C733.814815,95.4974458 734.998527,94.2439036 734.998527,89.5596145 L734.998527,46.6752771 C734.998527,42.650747 734.472433,41.8590361 730.855535,40.605494 L727.238636,39.4839036 L727.238636,36.8448675 L753.280303,33.744 Z M769.423276,47.1396511 C766.369231,39.4088276 764.643031,37.7427018 759.198864,36.6763813 L759.198864,33.744 L795.183485,33.744 L795.183485,36.6763813 C787.481979,37.7427018 786.286918,39.5421176 789.407356,48.3392617 L801.225184,81.3951968 L812.777442,48.8057769 C815.964272,39.5421176 814.769211,37.7427018 807.20049,36.6763813 L807.20049,33.744 L828.446023,33.744 L828.446023,36.6763813 C822.802678,37.8093469 821.076478,39.4088276 817.225726,49.4055822 L798.038354,99.456 L789.80571,99.456 L769.423276,47.1396511 Z M828.446023,64.9257591 C828.446023,44.6417865 841.255617,30.192 860.896995,30.192 C878.370595,30.192 888.815341,41.5890147 888.815341,58.0739824 C888.815341,59.634288 888.68396,61.2624329 888.48689,62.3478629 L847.102047,62.3478629 C848.350161,80.3252968 858.072315,91.3152752 871.801572,91.3152752 C878.633356,91.3152752 884.151335,88.6695397 887.632917,85.0062135 L887.632917,87.9911459 C883.100291,94.9786014 873.640899,99.456 862.013728,99.456 C843.029253,99.456 828.446023,86.0238041 828.446023,64.9257591 Z M847.977273,59.6326154 L847.977273,60.384 L872.707093,60.1107692 C872.77116,59.0178462 872.835227,57.72 872.835227,56.0806154 C872.835227,43.8535385 869.247481,35.52 861.623521,35.52 C852.97449,35.52 847.977273,44.1267692 847.977273,59.6326154 Z M389.880682,126.096 L385.153232,152.529374 L381.291371,152.529374 C381.091619,136.589651 377.562678,132.206227 361.116477,131.342825 L353.12642,130.944332 L344.603693,171.457795 L352.327415,171.192133 C361.449396,170.79364 363.580078,166.94154 367.441939,157.112044 L371.037464,157.112044 L363.979581,190.585463 L360.317472,190.585463 C360.650391,180.623136 359.718217,176.771036 351.19549,176.438958 L343.538352,176.306127 L336.613636,208.849729 C335.28196,214.959956 336.879972,216.288266 344.403942,217.815823 L343.538352,222 L294,222 L294.932173,217.815823 C302.456143,216.288266 304.120739,214.89354 305.385831,208.849729 L320.23402,139.246271 C321.499112,133.069629 320.300604,131.807734 313.509055,130.280177 L314.441229,126.096 L389.880682,126.096 Z M423.407284,152.736 L413.494592,200.030222 C412.106815,206.410667 413.560676,209.962667 417.922261,209.962667 C422.217761,209.962667 426.381091,205.424 427.967122,198.451556 L434.37733,168.785778 C435.302514,164.444444 434.509499,163.063111 431.469607,161.747556 L428.694053,160.695111 L429.487068,156.682667 L466.230114,152.736 L455.72266,202.332444 C454.533137,207.594667 456.053083,209.765333 459.291229,209.765333 C461.405937,209.765333 463.256306,209.107556 464.908421,207.989333 L464.049321,212.199111 C459.357314,217.592889 450.369806,221.671111 441.051876,221.671111 C432.064368,221.671111 427.041938,217.395556 427.240191,208.318222 C427.240191,207.134222 427.636699,204.832 427.834953,203.648 C423.539453,215.553778 413.692845,222 402.326292,222 C388.514608,222 382.1044,213.646222 385.408631,197.793778 L391.488415,168.785778 C392.4136,164.444444 391.686669,162.997333 388.712861,161.747556 L385.871223,160.695111 L386.664238,156.682667 L423.407284,152.736 Z M517.721591,120.768 L500.5433,202.288158 C499.494244,207.700562 500.936696,209.905616 504.14943,209.905616 C506.247542,209.905616 508.214522,209.237418 509.656974,208.101481 L508.73905,212.377949 C504.018298,217.790352 495.298021,222 485.594253,222 C474.579166,222 469.465019,215.652119 472.349922,201.82042 L486.053215,136.537473 C486.971139,132.127366 486.184347,130.657331 483.233878,129.387754 L480.348974,128.318638 L481.201332,124.24263 L517.721591,120.768 Z M565.661932,120.768 L548.483641,202.288158 C547.434585,207.700562 548.877037,209.905616 552.089771,209.905616 C554.187883,209.905616 556.154863,209.237418 557.597314,208.101481 L556.679391,212.377949 C551.958639,217.790352 543.238362,222 533.534594,222 C522.519507,222 517.40536,215.652119 520.290263,201.82042 L533.993556,136.537473 C534.91148,132.127366 534.124688,130.657331 531.174219,129.387754 L528.289315,128.318638 L529.141673,124.24263 L565.661932,120.768 Z M560.335227,215.30443 L563.904725,195.82032 L567.672529,195.82032 C567.804732,209.546239 574.943728,216.777455 584.264084,216.777455 C589.94884,216.777455 593.716644,213.496626 593.782745,208.675815 C593.782745,204.658473 591.997996,201.712422 586.842055,198.63246 L580.496281,194.882941 C572.497961,190.329953 567.408121,184.437851 567.408121,174.863186 C567.408121,160.266843 580.694586,150.96 602.442083,150.96 C612.026846,150.96 620.091268,153.638228 624.255682,156.115589 L621.082795,174.193629 L617.248889,174.193629 C616.52177,162.744204 611.035319,156.115589 602.442083,156.115589 C596.889531,156.115589 593.914949,158.860773 593.914949,163.279849 C593.848847,167.364147 596.096309,170.176287 601.648861,173.457116 L607.994635,177.206635 C615.596344,181.558756 620.223471,187.651725 620.223471,197.159434 C620.157369,210.483619 608.986163,222 584.264084,222 C574.481016,222 564.565743,218.652215 560.335227,215.30443 Z M647.234162,222 C632.922258,222 627.261105,213.609248 630.441528,198.193682 L637.756501,163.069605 L630.505136,163.069605 L631.332046,159.16693 L639.092279,156.565146 L641.700225,143.881452 L670.0696,140.304 L666.698351,156.890369 L681.073864,155.654522 L679.547261,163.069605 L665.680616,162.028892 L658.0476,198.714038 C656.457389,206.129121 658.810902,210.487108 663.899579,210.487108 C667.779695,210.487108 670.45125,209.121172 672.741155,207.039745 L671.914245,211.137554 C667.97052,217.121656 657.284299,222 647.234162,222 Z M681.073864,195.887276 C681.073864,170.243242 695.936134,150.96 716.836201,150.96 C726.324168,150.96 732.561014,155.646899 734.020701,160.802488 L743.906765,152.299114 L762.75,152.299114 L752.200442,202.047201 C751.072502,207.470613 752.532189,209.680151 755.84966,209.680151 C757.972842,209.680151 759.896975,209.010594 761.356662,207.872347 L760.49412,212.157512 C755.84966,217.513968 747.157886,221.665221 737.404521,221.665221 C728.779097,221.665221 723.603842,217.045278 723.86924,208.073214 C723.86924,206.868011 724.068288,204.658473 724.333686,203.319359 C721.016215,215.371385 712.191742,222 701.642184,222 C689.168493,222 681.073864,212.291423 681.073864,195.887276 Z M707.707386,200.931157 C707.707386,208.473793 709.614478,211.344 712.771044,211.344 C716.585227,211.344 719.939078,207.072064 721.84617,199.39593 L729.014205,165.554191 C728.356587,163.351474 726.383733,161.616 723.358691,161.616 C712.705282,161.616 707.707386,186.313128 707.707386,200.931157 Z M797.553315,222 C781.344447,222 768.076705,211.153176 768.076705,191.669067 C768.076705,168.301527 784.416289,150.96 807.553141,150.96 C824.219517,150.96 831.997159,159.731197 831.997159,169.03804 C831.997159,176.001433 826.703134,180.956155 820.1673,180.956155 C813.958258,180.956155 808.925666,176.2023 808.925666,169.707597 C808.925666,163.614628 813.500749,158.59295 819.644433,158.258172 C818.20655,157.722526 816.63795,157.387747 815.06935,157.387747 C804.285224,157.387747 797.095807,169.975419 797.095807,186.915212 C797.095807,203.319359 804.481299,209.546239 813.370033,209.546239 C818.20655,209.546239 823.500575,207.537568 826.376342,204.189783 L825.526684,208.474948 C821.474467,215.639208 810.690341,222 797.553315,222 Z M891.436037,222 C882.095642,222 877.327468,216.788055 873.735008,205.762788 L868.509613,189.926495 L866.158184,191.79745 L860.148979,220.730424 L831.997159,220.730424 L849.502235,136.537473 C850.481997,132.127366 849.698188,130.657331 846.628267,129.387754 L843.819617,128.318638 L844.668744,124.24263 L880.985245,120.768 L867.203264,186.852784 L891.044132,166.405925 C897.771829,160.592602 896.334845,157.251612 888.692704,156.115675 L889.345879,152.641046 L919,152.641046 L918.281508,156.115675 C910.770002,157.585711 905.218018,160.926701 895.355084,168.677798 L891.044132,172.152428 L900.31921,198.54625 C902.931908,205.762788 905.022066,208.034661 907.896034,208.034661 C909.659605,208.034661 911.161906,207.366463 912.206985,206.430986 L911.357859,210.640634 C908.026669,217.322614 900.253892,222 891.436037,222 Z" id="Collective-Fullstack-Copy-2" fill="#00768E"></path>
        </g>
    </g>
</svg>