<?xml version="1.0" encoding="UTF-8"?>
<svg width="457px" height="133px" viewBox="0 0 457 133" version="1.1" xmlns="http://www.w3.org/2000/svg" xmlns:xlink="http://www.w3.org/1999/xlink">
    <!-- Generator: Sketch 52.5 (67469) - http://www.bohemiancoding.com/sketch -->
    <title>Group</title>
    <desc>Created with Sketch.</desc>
    <g id="Page-1" stroke="none" stroke-width="1" fill="none" fill-rule="evenodd">
        <g id="collective-fullstack-logo-1.2" transform="translate(-272.000000, -172.000000)">
            <g id="Group" transform="translate(272.000000, 172.000000)">
                <path d="M281.134087,32.875 C282.171837,34.8486046 282.946584,37.0152684 283.458333,39.375 L268.725,43.275 C267.858329,40.2416515 266.359733,37.8763974 264.229167,36.1791667 C262.0986,34.481936 259.661125,33.6333333 256.916667,33.6333333 C252.438866,33.6333333 249.080567,35.204151 246.841667,38.3458333 C244.602767,41.4875157 243.483333,45.6221966 243.483333,50.75 C243.483333,55.950026 244.638877,60.1027622 246.95,63.2083333 C249.261123,66.3139044 252.583312,67.8666667 256.916667,67.8666667 C260.09446,67.8666667 262.568047,67.1444517 264.3375,65.7 C266.106953,64.2555483 267.461106,62.0527926 268.4,59.0916667 L283.458333,62.2333333 C281.797214,68.4444755 278.655579,73.2291499 274.033333,76.5875 C269.411088,79.9458501 263.705589,81.625 256.916667,81.625 C250.994415,81.625 245.848633,80.2889022 241.479167,77.6166667 C237.1097,74.9444311 233.751401,71.2611346 231.404167,66.5666667 C229.6209,63.000134 228.515046,59.1001571 228.086587,54.8666667 L187.941667,54.8666667 C188.519447,58.9833539 189.963877,62.1791553 192.275,64.4541667 C194.586123,66.729178 197.691647,67.8666667 201.591667,67.8666667 C204.336125,67.8666667 206.755545,67.2347285 208.85,65.9708333 C210.944455,64.7069381 212.569439,62.8833452 213.725,60.5 L228.458333,64.725 C226.363878,69.925026 222.915302,74.0416515 218.1125,77.075 C213.309698,80.1083485 208.091695,81.625 202.458333,81.625 C196.463859,81.625 191.155579,80.3430684 186.533333,77.7791667 C181.911088,75.215265 178.336124,71.6403007 175.808333,67.0541667 C173.280543,62.4680326 172.016667,57.28614 172.016667,51.5083333 C172.016667,45.2249686 173.244432,39.7000238 175.7,34.9333333 C178.155568,30.1666428 181.6222,26.465291 186.1,23.8291667 C190.5778,21.1930424 195.741637,19.875 201.591667,19.875 C207.369473,19.875 212.334701,21.1569316 216.4875,23.7208333 C220.640299,26.284735 223.799989,29.89581 225.966667,34.5541667 C227.19772,37.2009314 228.079041,40.074993 228.610635,43.1763808 C229.208868,40.2178598 230.176154,37.4521307 231.5125,34.8791667 C233.931957,30.22081 237.344422,26.5555689 241.75,23.8833333 C246.155578,21.2110978 251.283304,19.875 257.133333,19.875 C263.994479,19.875 269.772199,21.6263714 274.466667,25.1291667 C275.690317,26.0421978 276.798649,27.0398696 277.791667,28.1221846 L277.791667,21.5 L287.758333,21.5 L287.758333,5.25 L302.491667,5.25 L302.491667,21.5 L319.391667,21.5 L319.391667,32.875 L302.491667,32.875 L302.491667,57.7916667 C302.491667,59.5250087 302.581944,60.9694387 302.7625,62.125 C302.943056,63.2805613 303.249998,64.1833301 303.683333,64.8333333 C304.911117,66.7833431 306.96943,67.9027763 309.858333,68.1916667 C310.363891,68.2638892 311.158328,68.3 312.241667,68.3 C314.480567,68.3 316.863876,68.1194462 319.391667,67.7583333 L319.391667,80 C316.936099,80.6500032 313.794464,80.975 309.966667,80.975 C307.005541,80.975 304.441677,80.7944462 302.275,80.4333333 C299.458319,79.9277752 297.147231,79.1333387 295.341667,78.05 C293.536102,76.9666612 291.875008,75.3055667 290.358333,73.0666667 C289.347217,71.5499924 288.661113,69.8347318 288.3,67.9208333 C287.938887,66.0069349 287.758333,63.6777915 287.758333,60.9333333 L287.758333,32.875 L281.134087,32.875 Z M70.9802794,59.605609 C70.0344799,62.1970233 68.8924485,64.5715286 67.5541667,66.7291667 C65.7847134,69.5819587 63.3833485,72.2360988 60.35,74.6916667 C54.4999708,79.313912 46.7722703,81.625 37.1666667,81.625 C31.38886,81.625 26.0986351,80.5236221 21.2958333,78.3208333 C16.4930315,76.1180445 12.5027937,72.9583539 9.325,68.8416667 C3.33052558,61.1138502 0.333333333,51.8333875 0.333333333,41 C0.333333333,29.4443867 3.29441483,20.0917024 9.21666667,12.9416667 C12.6111281,8.75275683 16.6916428,5.61112158 21.4583333,3.51666667 C26.2250238,1.42221175 31.4610826,0.375 37.1666667,0.375 C41.8611346,0.375 46.1041477,0.91666125 49.8958333,2 C53.687519,3.08333875 57.1360956,4.88887625 60.2416667,7.41666667 C63.5639055,10.0889022 66.1819349,13.0499838 68.0958333,16.3 C70.0097318,19.5500162 71.4361064,23.1610912 72.375,27.1333333 L57.6416667,29.1916667 C56.8472183,26.4472085 55.6555635,24.063899 54.0666667,22.0416667 C50.1666472,16.8416407 44.7139239,14.2416667 37.7083333,14.2416667 C34.3860945,14.2416667 31.2444593,14.9097155 28.2833333,16.2458333 C25.3222074,17.5819511 22.9388979,19.5138763 21.1333333,22.0416667 C17.5944268,26.4472442 15.825,32.5138502 15.825,40.2416667 C15.825,48.7639315 17.5944268,55.336088 21.1333333,59.9583333 C23.0111205,62.5583463 25.4847069,64.5083268 28.5541667,65.8083333 C31.6236265,67.1083398 34.9638708,67.7583333 38.575,67.7583333 C45.0028099,67.7583333 50.1666472,65.1583593 54.0666667,59.9583333 C55.5833409,57.8638784 56.7027742,55.6972334 57.425,53.4583333 L70.3971942,56.6769981 C70.1046198,54.7797818 69.9583333,52.8041179 69.9583333,50.75 C69.9583333,44.7555256 71.2222096,39.4111346 73.75,34.7166667 C76.2777904,30.0221988 79.7805332,26.375013 84.2583333,23.775 C88.7361335,21.174987 93.8277493,19.875 99.5333333,19.875 C105.31114,19.875 110.456922,21.1930424 114.970833,23.8291667 C119.484745,26.465291 122.987488,30.1124767 125.479167,34.7708333 C127.970846,39.42919 129.216667,44.7555256 129.216667,50.75 C129.216667,56.7444744 127.970846,62.0888654 125.479167,66.7833333 C122.987488,71.4778013 119.484745,75.124987 114.970833,77.725 C110.456922,80.325013 105.31114,81.625 99.5333333,81.625 C93.7555267,81.625 88.6278002,80.3069576 84.15,77.6708333 C79.6721998,75.034709 76.1875125,71.3875233 73.6958333,66.7291667 C72.5070705,64.5066971 71.6018872,62.1321837 70.9802794,59.605609 Z M113.616667,50.75 C113.616667,45.4055288 112.406957,41.2166818 109.9875,38.1833333 C107.568043,35.1499848 104.083356,33.6333333 99.5333333,33.6333333 C94.8388654,33.6333333 91.3361227,35.1680402 89.025,38.2375 C86.7138773,41.3069598 85.5583333,45.4777514 85.5583333,50.75 C85.5583333,56.0944712 86.7499881,60.2833182 89.1333333,63.3166667 C91.5166786,66.3500152 94.9833106,67.8666667 99.5333333,67.8666667 C104.083356,67.8666667 107.568043,66.3139044 109.9875,63.2083333 C112.406957,60.1027622 113.616667,55.950026 113.616667,50.75 Z M146.95,80 L132.216667,80 L132.216667,0.375 L146.95,0.375 L146.95,80 Z M169.016667,80 L154.283333,80 L154.283333,0.375 L169.016667,0.375 L169.016667,80 Z M201.591667,32.6583333 C194.369408,32.6583333 189.963897,36.2694083 188.375,43.4916667 L214.05,43.4916667 C213.544442,39.8805375 212.334732,37.1722313 210.420833,35.3666667 C208.506935,33.5611021 205.563909,32.6583333 201.591667,32.6583333 Z M338.208333,0.375 L338.208333,13.375 L323.475,13.375 L323.475,0.375 L338.208333,0.375 Z M338.208333,21.5 L338.208333,80 L323.475,80 L323.475,21.5 L338.208333,21.5 Z M396.241667,21.5 L375.008333,80 L360.275,80 L339.041667,21.5 L353.775,21.5 L367.641667,62.0166667 L381.508333,21.5 L396.241667,21.5 Z M408.125,54.8666667 C408.702781,58.9833539 410.147211,62.1791553 412.458333,64.4541667 C414.769456,66.729178 417.874981,67.8666667 421.775,67.8666667 C424.519458,67.8666667 426.938878,67.2347285 429.033333,65.9708333 C431.127788,64.7069381 432.752772,62.8833452 433.908333,60.5 L448.641667,64.725 C446.547212,69.925026 443.098635,74.0416515 438.295833,77.075 C433.493032,80.1083485 428.275028,81.625 422.641667,81.625 C416.647192,81.625 411.338912,80.3430684 406.716667,77.7791667 C402.094421,75.215265 398.519457,71.6403007 395.991667,67.0541667 C393.463876,62.4680326 392.2,57.28614 392.2,51.5083333 C392.2,45.2249686 393.427766,39.7000238 395.883333,34.9333333 C398.338901,30.1666428 401.805533,26.465291 406.283333,23.8291667 C410.761134,21.1930424 415.924971,19.875 421.775,19.875 C427.552807,19.875 432.518035,21.1569316 436.670833,23.7208333 C440.823632,26.284735 443.983323,29.89581 446.15,34.5541667 C448.316678,39.2125233 449.4,44.5749697 449.4,50.6416667 C449.4,51.5805603 449.327779,52.9888795 449.183333,54.8666667 L408.125,54.8666667 Z M421.775,32.6583333 C414.552742,32.6583333 410.14723,36.2694083 408.558333,43.4916667 L434.233333,43.4916667 C433.727775,39.8805375 432.518065,37.1722313 430.604167,35.3666667 C428.690268,33.5611021 425.747242,32.6583333 421.775,32.6583333 Z" id="Collective" fill="#FF4019"></path>
                <path d="M250.791667,78.9104317 L250.791667,72.5 L260.758333,72.5 L260.758333,56.25 L275.491667,56.25 L275.491667,72.5 L292.391667,72.5 L292.391667,83.875 L275.491667,83.875 L275.491667,108.791667 C275.491667,110.525009 275.581944,111.969439 275.7625,113.125 C275.943056,114.280561 276.249998,115.18333 276.683333,115.833333 C277.911117,117.783343 279.96943,118.902776 282.858333,119.191667 C283.363891,119.263889 284.158328,119.3 285.241667,119.3 C287.480567,119.3 289.863876,119.119446 292.391667,118.758333 L292.391667,131 C289.936099,131.650003 286.794464,131.975 282.966667,131.975 C280.005541,131.975 277.441677,131.794446 275.275,131.433333 C272.458319,130.927775 270.147231,130.133339 268.341667,129.05 C266.536102,127.966661 264.875008,126.305567 263.358333,124.066667 C262.347217,122.549992 261.661113,120.834732 261.3,118.920833 C260.938887,117.006935 260.758333,114.677791 260.758333,111.933333 L260.758333,83.875 L253.729873,83.875 C254.245062,85.2207303 254.612882,86.6651739 254.833333,88.2083333 L239.775,90.9166667 C239.48611,88.7499892 238.402787,86.9805624 236.525,85.6083333 C234.647213,84.2361042 232.300014,83.55 229.483333,83.55 C227.172211,83.55 225.240286,83.9652736 223.6875,84.7958333 C222.134714,85.626393 221.358333,86.6916602 221.358333,87.9916667 C221.358333,89.3638957 221.809718,90.4472182 222.7125,91.2416667 C223.615282,92.0361151 225.041657,92.7222193 226.991667,93.3 C229.519457,94.0222258 232.841646,94.9249946 236.958333,96.0083333 C243.386143,97.6694528 248.062485,99.8180424 250.9875,102.454167 C253.912515,105.090291 255.375,108.827754 255.375,113.666667 C255.375,119.588918 253.136133,124.22915 248.658333,127.5875 C244.180533,130.94585 238.511145,132.625 231.65,132.625 C224.066629,132.625 217.963912,131.054182 213.341667,127.9125 C208.719421,124.770818 205.866672,119.950033 204.783333,113.45 L219.841667,111.175 C220.419447,113.991681 221.791656,116.158326 223.958333,117.675 C226.125011,119.191674 228.797206,119.95 231.975,119.95 C234.430568,119.95 236.434714,119.462505 237.9875,118.4875 C239.540286,117.512495 240.316667,116.122231 240.316667,114.316667 C240.316667,112.872215 239.775005,111.716671 238.691667,110.85 C237.608328,109.983329 235.947233,109.225003 233.708333,108.575 L219.191667,104.566667 C215.291647,103.483328 212.240289,101.587514 210.0375,98.8791667 C207.834711,96.1708198 206.733333,92.7944647 206.733333,88.75 C206.733333,84.9222031 207.7986,81.6722356 209.929167,79 C212.059733,76.3277644 214.876371,74.3055624 218.379167,72.9333333 C221.881962,71.5611042 225.727757,70.875 229.916667,70.875 C236.488922,70.875 242.086088,72.3735961 246.708333,75.3708333 C248.294955,76.3996583 249.656065,77.5795227 250.791667,78.9104317 Z M72.3166667,67.7333333 L72.3166667,84.6333333 L98.75,84.6333333 L98.75,99.3666667 L72.3166667,99.3666667 L72.3166667,131 L57.5833333,131 L57.5833333,53 L105.25,53 L105.25,67.7333333 L72.3166667,67.7333333 Z M158.733333,72.5 L158.733333,131 L145.733333,131 L145.733333,124.933333 L144.975,125.8 C142.952768,128.255568 140.352794,130.024995 137.175,131.108333 C133.997206,132.191672 130.747239,132.733333 127.425,132.733333 C120.347187,132.733333 114.641688,130.602799 110.308333,126.341667 C108.358324,124.391657 106.913894,122.062514 105.975,119.354167 C105.036106,116.64582 104.458334,113.901403 104.241667,111.120833 C104.024999,108.340264 103.916667,104.891687 103.916667,100.775 L103.916667,72.5 L118.866667,72.5 L118.866667,100.125 C118.866667,107.563926 120.166654,112.691653 122.766667,115.508333 C124.788899,117.747233 127.677759,118.866667 131.433333,118.866667 C134.394459,118.866667 136.886101,118.108341 138.908333,116.591667 C141.147233,114.930547 142.591663,112.438905 143.241667,109.116667 C143.675002,107.022212 143.891667,103.302804 143.891667,97.9583333 L143.891667,72.5 L158.733333,72.5 Z M179.716667,131 L164.983333,131 L164.983333,51.375 L179.716667,51.375 L179.716667,131 Z M201.783333,131 L187.05,131 L187.05,51.375 L201.783333,51.375 L201.783333,131 Z M331.575,131 L331.575,123.85 C328.902764,126.955571 326.068071,129.194438 323.070833,130.566667 C320.073596,131.938896 316.19169,132.625 311.425,132.625 C305.574971,132.625 300.898629,130.94585 297.395833,127.5875 C293.893038,124.22915 292.141667,119.805583 292.141667,114.316667 C292.141667,106.661073 295.644409,101.280571 302.65,98.175 C305.611126,96.8749935 308.843038,95.8638925 312.345833,95.1416667 C315.848629,94.4194408 320.416638,93.6611151 326.05,92.8666667 L329.841667,92.325 C329.480554,89.5083192 328.32501,87.4680619 326.375,86.2041667 C324.42499,84.9402715 322.041681,84.3083333 319.225,84.3083333 C316.552764,84.3083333 314.169455,84.9041607 312.075,86.0958333 C309.980545,87.287506 308.427783,89.0749881 307.416667,91.4583333 L294.2,87.45 C296.294455,82.6110869 299.526367,78.6389044 303.895833,75.5333333 C308.2653,72.4277623 313.519414,70.875 319.658333,70.875 C325.797253,70.875 330.852758,72.1027655 334.825,74.5583333 C338.797242,77.0139012 341.57777,80.6610869 343.166667,85.5 C344.033338,88.1722356 344.466667,91.7110891 344.466667,96.1166667 L344.466667,131 L331.575,131 Z M327.891667,114.1 C329.191673,111.933322 329.841667,108.647244 329.841667,104.241667 C326.447205,104.819447 323.504179,105.343053 321.0125,105.8125 C318.520821,106.281947 316.191677,106.841663 314.025,107.491667 C309.041642,108.863896 306.55,111.247205 306.55,114.641667 C306.55,116.375009 307.272215,117.89166 308.716667,119.191667 C310.161118,120.491673 312.219431,121.141667 314.891667,121.141667 C317.563902,121.141667 320.091655,120.473618 322.475,119.1375 C324.858345,117.801382 326.663883,116.122232 327.891667,114.1 Z M386.141667,94.275 C385.274996,91.2416515 383.7764,88.8763974 381.645833,87.1791667 C379.515267,85.481936 377.077792,84.6333333 374.333333,84.6333333 C369.855533,84.6333333 366.497233,86.204151 364.258333,89.3458333 C362.019433,92.4875157 360.9,96.6221966 360.9,101.75 C360.9,106.950026 362.055544,111.102762 364.366667,114.208333 C366.677789,117.313904 369.999978,118.866667 374.333333,118.866667 C377.511127,118.866667 379.984713,118.144452 381.754167,116.7 C383.52362,115.255548 384.877773,113.052793 385.816667,110.091667 L400.875,113.233333 C399.213881,119.444476 396.072245,124.22915 391.45,127.5875 C386.827755,130.94585 381.122256,132.625 374.333333,132.625 C368.411082,132.625 363.2653,131.288902 358.895833,128.616667 C354.526367,125.944431 351.168067,122.261135 348.820833,117.566667 C346.473599,112.872199 345.3,107.600029 345.3,101.75 C345.3,95.8277482 346.50971,90.5375233 348.929167,85.8791667 C351.348623,81.22081 354.761089,77.5555689 359.166667,74.8833333 C363.572244,72.2110978 368.699971,70.875 374.55,70.875 C381.411145,70.875 387.188865,72.6263714 391.883333,76.1291667 C396.577801,79.631962 399.574994,84.3805256 400.875,90.375 L386.141667,94.275 Z M401.816667,53 L416.766667,53 L416.766667,100.666667 L436.591667,72.5 L454.791667,72.5 L433.666667,101.75 L456.2,131 L437.025,131 L416.766667,102.833333 L416.766667,131 L401.708333,131 L401.816667,53 Z" id="Fullstack" fill="#00768E"></path>
            </g>
        </g>
    </g>
</svg>