<?xml version="1.0" encoding="UTF-8"?>
<svg width="522px" height="581px" viewBox="0 0 522 581" version="1.1" xmlns="http://www.w3.org/2000/svg" xmlns:xlink="http://www.w3.org/1999/xlink">
    <!-- Generator: Sketch 52.5 (67469) - http://www.bohemiancoding.com/sketch -->
    <title>Combined-Shape</title>
    <desc>Created with Sketch.</desc>
    <g id="Page-1" stroke="none" stroke-width="1" fill="none" fill-rule="evenodd">
        <g id="square" transform="translate(-239.000000, -210.000000)" fill="#DD3388" fill-rule="nonzero">
            <g id="logo_glyph" transform="translate(239.000000, 210.000000)">
                <path d="M488.874663,298.304397 C496.411498,308.443803 500.872011,321.01339 500.872011,334.626582 C500.872011,368.248761 473.662762,395.504923 440.098453,395.504923 C421.538033,395.504923 404.920914,387.170321 393.773428,374.033533 C386.768687,376.891529 379.520405,379.48035 372.028571,381.8 C341.647467,391.206714 308.781129,395.91 273.428571,395.91 L148.314286,395.91 L116,581 L0,581 L101.914286,0 L340.542857,0 C367.609659,0 392.328459,4.42662266 414.7,13.2800004 C437.071541,22.1333772 456.128493,34.3065889 471.871429,49.7999999 C487.614365,65.2934108 499.904718,83.9682242 508.742857,105.825 C517.580996,127.681776 522,151.33654 522,176.79 C522,212.756847 515.785776,244.434863 503.357143,271.825 C499.110129,281.184541 494.282642,290.010998 488.874663,298.304397 Z M281.714286,299.63 C322.038297,299.63 352.833227,289.116772 374.1,268.09 C395.366773,247.063228 406,218.843511 406,183.43 C406,158.529875 398.404838,137.780083 383.214286,121.18 C368.023733,104.579917 345.790623,96.2799999 316.514286,96.2799999 L201.342857,96.2799999 L165.714286,299.63 L281.714286,299.63 Z M488.874663,298.304397 C477.796846,283.401261 460.073001,273.748242 440.098453,273.748242 C406.534143,273.748242 379.324895,301.004403 379.324895,334.626582 C379.324895,349.656341 384.762014,363.414003 393.773428,374.033533 C415.174525,365.301692 434.302316,354.057241 451.157143,340.3 C465.884057,328.279603 478.456514,314.281133 488.874663,298.304397 Z" id="Combined-Shape"></path>
            </g>
        </g>
    </g>
</svg>