<?xml version="1.0" encoding="UTF-8" standalone="no"?>
<!DOCTYPE svg PUBLIC "-//W3C//DTD SVG 1.1//EN" "http://www.w3.org/Graphics/SVG/1.1/DTD/svg11.dtd">
<svg width="100%" height="100%" viewBox="0 0 809 829" version="1.1" xmlns="http://www.w3.org/2000/svg" xmlns:xlink="http://www.w3.org/1999/xlink" xml:space="preserve" xmlns:serif="http://www.serif.com/" style="fill-rule:evenodd;clip-rule:evenodd;stroke-linejoin:round;stroke-miterlimit:2;">
    <g transform="matrix(1,0,0,1,-72.8843,-69.245)">
        <g transform="matrix(1,0,0,1,87.3107,87.3107)">
            <g transform="matrix(0.999534,0.0305125,-0.0305125,0.999534,1.67618,-11.4376)">
                <g transform="matrix(90,0,0,90,375.601,49.2026)">
                    <path d="M0.627,-0.75L0.627,0L0.568,0L0.568,-0.346L0.133,-0.346L0.133,0L0.073,0L0.073,-0.75L0.133,-0.75L0.133,-0.404L0.568,-0.404L0.568,-0.75L0.627,-0.75Z" style="fill:white;fill-rule:nonzero;"/>
                </g>
            </g>
            <g transform="matrix(0.980202,0.197998,-0.197998,0.980202,18.8784,-85.8274)">
                <g transform="matrix(90,0,0,90,438.623,51.4885)">
                    <path d="M0.106,-0.265C0.109,-0.195 0.127,-0.141 0.161,-0.102C0.195,-0.062 0.242,-0.043 0.303,-0.043C0.347,-0.043 0.385,-0.053 0.417,-0.072C0.449,-0.092 0.475,-0.122 0.495,-0.16L0.549,-0.136C0.527,-0.087 0.494,-0.049 0.452,-0.023C0.41,0.003 0.361,0.016 0.305,0.016C0.25,0.016 0.203,0.003 0.164,-0.022C0.124,-0.047 0.094,-0.082 0.073,-0.127C0.052,-0.171 0.042,-0.223 0.042,-0.28C0.042,-0.34 0.052,-0.392 0.073,-0.437C0.094,-0.482 0.124,-0.516 0.163,-0.541C0.202,-0.566 0.249,-0.578 0.303,-0.578C0.389,-0.578 0.453,-0.55 0.497,-0.494C0.541,-0.438 0.562,-0.361 0.56,-0.265L0.106,-0.265ZM0.303,-0.521C0.245,-0.522 0.199,-0.504 0.166,-0.467C0.133,-0.431 0.114,-0.381 0.108,-0.319L0.497,-0.319C0.491,-0.383 0.472,-0.433 0.44,-0.469C0.408,-0.504 0.362,-0.522 0.303,-0.521Z" style="fill:white;fill-rule:nonzero;"/>
                </g>
            </g>
            <g transform="matrix(0.952942,0.303153,-0.303153,0.952942,42.2689,-146.054)">
                <g transform="matrix(90,0,0,90,491.582,63.123)">
                    <rect x="0.083" y="-0.766" width="0.06" height="0.766" style="fill:white;fill-rule:nonzero;"/>
                </g>
            </g>
            <g transform="matrix(0.933123,0.359558,-0.359558,0.933123,59.1235,-179.156)">
                <g transform="matrix(90,0,0,90,511.167,69.3574)">
                    <rect x="0.083" y="-0.766" width="0.06" height="0.766" style="fill:white;fill-rule:nonzero;"/>
                </g>
            </g>
            <g transform="matrix(0.888546,0.458788,-0.458788,0.888546,93.9406,-234.984)">
                <g transform="matrix(90,0,0,90,530.612,75.8556)">
                    <path d="M0.303,0.016C0.249,0.016 0.202,0.003 0.163,-0.022C0.123,-0.047 0.093,-0.082 0.072,-0.127C0.052,-0.172 0.042,-0.224 0.042,-0.282C0.042,-0.341 0.052,-0.393 0.073,-0.438C0.094,-0.482 0.124,-0.516 0.164,-0.541C0.203,-0.566 0.25,-0.578 0.303,-0.578C0.358,-0.578 0.405,-0.566 0.445,-0.541C0.484,-0.516 0.514,-0.481 0.535,-0.436C0.555,-0.392 0.566,-0.341 0.566,-0.282C0.566,-0.223 0.555,-0.17 0.534,-0.126C0.514,-0.081 0.484,-0.046 0.444,-0.021C0.405,0.003 0.358,0.016 0.303,0.016ZM0.501,-0.282C0.501,-0.356 0.484,-0.414 0.451,-0.456C0.417,-0.499 0.368,-0.52 0.303,-0.52C0.238,-0.52 0.189,-0.498 0.156,-0.456C0.123,-0.413 0.106,-0.355 0.106,-0.282C0.106,-0.208 0.123,-0.149 0.157,-0.107C0.19,-0.064 0.239,-0.043 0.303,-0.043C0.368,-0.043 0.417,-0.064 0.451,-0.107C0.484,-0.15 0.501,-0.209 0.501,-0.282Z" style="fill:white;fill-rule:nonzero;"/>
                </g>
            </g>
            <g transform="matrix(0.838487,0.544921,-0.544921,0.838487,148.141,-298.211)">
                <g transform="matrix(90,0,0,90,577.132,100.797)">
                    <path d="M0.139,0.026C0.139,0.05 0.133,0.068 0.122,0.082C0.112,0.095 0.097,0.102 0.077,0.102C0.071,0.102 0.066,0.102 0.063,0.101L0.067,0.069C0.084,0.069 0.095,0.064 0.098,0.053C0.102,0.042 0.104,0.024 0.103,0L0.063,0L0.063,-0.102L0.139,-0.102L0.139,0.026Z" style="fill:white;fill-rule:nonzero;"/>
                </g>
            </g>
            <g transform="matrix(0.748443,0.663199,-0.663199,0.748443,237.543,-374.934)">
                <g transform="matrix(90,0,0,90,613.005,125.66)">
                    <path d="M0.197,-0.508L0.197,-0.158C0.197,-0.143 0.198,-0.131 0.199,-0.122C0.2,-0.113 0.203,-0.104 0.208,-0.096C0.214,-0.083 0.223,-0.072 0.235,-0.064C0.248,-0.056 0.262,-0.051 0.278,-0.05C0.284,-0.049 0.294,-0.049 0.308,-0.049C0.328,-0.049 0.35,-0.051 0.372,-0.054L0.372,0C0.352,0.005 0.328,0.007 0.302,0.007C0.292,0.007 0.278,0.007 0.261,0.005C0.209,-0.002 0.174,-0.026 0.154,-0.066C0.145,-0.083 0.14,-0.1 0.139,-0.116C0.137,-0.132 0.136,-0.159 0.136,-0.195L0.136,-0.508L0.01,-0.508L0.01,-0.563L0.136,-0.563L0.136,-0.719L0.197,-0.719L0.197,-0.563L0.372,-0.563L0.372,-0.508L0.197,-0.508Z" style="fill:white;fill-rule:nonzero;"/>
                </g>
            </g>
            <g transform="matrix(0.652254,0.758001,-0.758001,0.652254,336.167,-433.726)">
                <g transform="matrix(90,0,0,90,640.791,149.518)">
                    <path d="M0.452,-0.535C0.49,-0.508 0.515,-0.473 0.528,-0.43C0.54,-0.386 0.547,-0.334 0.546,-0.274L0.546,0L0.485,0L0.485,-0.273C0.485,-0.327 0.481,-0.371 0.471,-0.406C0.461,-0.44 0.441,-0.468 0.411,-0.489C0.384,-0.508 0.35,-0.518 0.309,-0.518C0.262,-0.518 0.224,-0.504 0.194,-0.477C0.167,-0.453 0.149,-0.419 0.141,-0.375C0.136,-0.356 0.133,-0.333 0.133,-0.308L0.133,0L0.073,0L0.073,-0.75L0.128,-0.75L0.128,-0.478C0.139,-0.494 0.15,-0.507 0.16,-0.518C0.178,-0.535 0.2,-0.549 0.224,-0.558C0.249,-0.568 0.274,-0.574 0.3,-0.575C0.305,-0.576 0.312,-0.576 0.322,-0.576C0.372,-0.576 0.415,-0.563 0.452,-0.535Z" style="fill:white;fill-rule:nonzero;"/>
                </g>
            </g>
            <g transform="matrix(0.567995,0.823032,-0.823032,0.567995,449.596,-473.447)">
                <g transform="matrix(90,0,0,90,675.791,191.549)">
                    <path d="M0.144,-0.761L0.144,-0.685L0.083,-0.685L0.083,-0.761L0.144,-0.761ZM0.144,-0.563L0.144,0L0.083,0L0.083,-0.563L0.144,-0.563Z" style="fill:white;fill-rule:nonzero;"/>
                </g>
            </g>
            <g transform="matrix(0.483186,0.875518,-0.875518,0.483186,537.749,-494.86)">
                <g transform="matrix(90,0,0,90,688.038,208.062)">
                    <path d="M0.438,-0.404C0.431,-0.445 0.411,-0.475 0.379,-0.494C0.346,-0.513 0.307,-0.522 0.261,-0.522C0.22,-0.522 0.186,-0.513 0.16,-0.495C0.134,-0.477 0.121,-0.453 0.121,-0.425C0.121,-0.385 0.153,-0.356 0.218,-0.339C0.256,-0.327 0.285,-0.319 0.306,-0.315L0.334,-0.307C0.388,-0.293 0.429,-0.275 0.457,-0.252C0.485,-0.228 0.499,-0.196 0.499,-0.154C0.499,-0.1 0.479,-0.058 0.44,-0.029C0.4,0 0.348,0.015 0.282,0.015C0.22,0.015 0.168,0.002 0.124,-0.024C0.08,-0.05 0.053,-0.089 0.042,-0.141L0.103,-0.152C0.112,-0.115 0.134,-0.087 0.168,-0.069C0.202,-0.051 0.241,-0.042 0.286,-0.042C0.33,-0.042 0.365,-0.051 0.393,-0.07C0.421,-0.089 0.435,-0.116 0.435,-0.15C0.435,-0.171 0.43,-0.188 0.42,-0.201C0.41,-0.213 0.397,-0.223 0.381,-0.23C0.364,-0.237 0.342,-0.244 0.315,-0.252L0.205,-0.283C0.159,-0.296 0.123,-0.313 0.097,-0.334C0.071,-0.356 0.058,-0.386 0.058,-0.424C0.058,-0.457 0.068,-0.485 0.087,-0.508C0.107,-0.531 0.133,-0.549 0.165,-0.56C0.197,-0.572 0.231,-0.578 0.268,-0.578C0.31,-0.578 0.348,-0.571 0.382,-0.557C0.415,-0.543 0.443,-0.524 0.463,-0.499C0.484,-0.475 0.495,-0.447 0.499,-0.415L0.438,-0.404Z" style="fill:white;fill-rule:nonzero;"/>
                </g>
            </g>
            <g transform="matrix(0.339002,0.940786,-0.940786,0.339002,728.629,-498.164)">
                <g transform="matrix(90,0,0,90,718.828,269.44)">
                    <path d="M0.144,-0.761L0.144,-0.685L0.083,-0.685L0.083,-0.761L0.144,-0.761ZM0.144,-0.563L0.144,0L0.083,0L0.083,-0.563L0.144,-0.563Z" style="fill:white;fill-rule:nonzero;"/>
                </g>
            </g>
            <g transform="matrix(0.242984,0.97003,-0.97003,0.242984,829.711,-486.304)">
                <g transform="matrix(90,0,0,90,726.427,288.438)">
                    <path d="M0.438,-0.404C0.431,-0.445 0.411,-0.475 0.379,-0.494C0.346,-0.513 0.307,-0.522 0.261,-0.522C0.22,-0.522 0.186,-0.513 0.16,-0.495C0.134,-0.477 0.121,-0.453 0.121,-0.425C0.121,-0.385 0.153,-0.356 0.218,-0.339C0.256,-0.327 0.285,-0.319 0.306,-0.315L0.334,-0.307C0.388,-0.293 0.429,-0.275 0.457,-0.252C0.485,-0.228 0.499,-0.196 0.499,-0.154C0.499,-0.1 0.479,-0.058 0.44,-0.029C0.4,0 0.348,0.015 0.282,0.015C0.22,0.015 0.168,0.002 0.124,-0.024C0.08,-0.05 0.053,-0.089 0.042,-0.141L0.103,-0.152C0.112,-0.115 0.134,-0.087 0.168,-0.069C0.202,-0.051 0.241,-0.042 0.286,-0.042C0.33,-0.042 0.365,-0.051 0.393,-0.07C0.421,-0.089 0.435,-0.116 0.435,-0.15C0.435,-0.171 0.43,-0.188 0.42,-0.201C0.41,-0.213 0.397,-0.223 0.381,-0.23C0.364,-0.237 0.342,-0.244 0.315,-0.252L0.205,-0.283C0.159,-0.296 0.123,-0.313 0.097,-0.334C0.071,-0.356 0.058,-0.386 0.058,-0.424C0.058,-0.457 0.068,-0.485 0.087,-0.508C0.107,-0.531 0.133,-0.549 0.165,-0.56C0.197,-0.572 0.231,-0.578 0.268,-0.578C0.31,-0.578 0.348,-0.571 0.382,-0.557C0.415,-0.543 0.443,-0.524 0.463,-0.499C0.484,-0.475 0.495,-0.447 0.499,-0.415L0.438,-0.404Z" style="fill:white;fill-rule:nonzero;"/>
                </g>
            </g>
            <g transform="matrix(0.0459493,0.998944,-0.998944,0.0459493,1062.17,-401.305)">
                <g transform="matrix(90,0,0,90,741.179,355.423)">
                    <path d="M0.455,0L0.455,-0.097C0.41,-0.022 0.334,0.016 0.226,0.016C0.173,0.016 0.128,0 0.094,-0.03C0.059,-0.061 0.042,-0.102 0.042,-0.153C0.042,-0.191 0.053,-0.223 0.075,-0.25C0.097,-0.277 0.131,-0.297 0.177,-0.308C0.221,-0.319 0.288,-0.33 0.378,-0.341L0.449,-0.35C0.448,-0.406 0.435,-0.448 0.408,-0.477C0.382,-0.505 0.344,-0.52 0.294,-0.52C0.2,-0.52 0.143,-0.483 0.123,-0.408L0.064,-0.427C0.076,-0.476 0.103,-0.514 0.143,-0.54C0.184,-0.565 0.235,-0.578 0.297,-0.578C0.35,-0.578 0.393,-0.566 0.428,-0.541C0.463,-0.516 0.486,-0.481 0.499,-0.435C0.506,-0.412 0.509,-0.383 0.509,-0.349L0.509,0L0.455,0ZM0.425,-0.144C0.441,-0.175 0.449,-0.226 0.449,-0.296C0.436,-0.294 0.414,-0.291 0.383,-0.289C0.341,-0.284 0.307,-0.279 0.282,-0.276C0.256,-0.272 0.232,-0.267 0.207,-0.26C0.138,-0.241 0.103,-0.205 0.103,-0.153C0.103,-0.118 0.115,-0.091 0.139,-0.07C0.162,-0.05 0.193,-0.04 0.232,-0.04C0.277,-0.04 0.317,-0.048 0.35,-0.066C0.383,-0.084 0.408,-0.11 0.425,-0.144Z" style="fill:white;fill-rule:nonzero;"/>
                </g>
            </g>
            <g transform="matrix(-0.188383,0.982096,-0.982096,-0.188383,1302.59,-222.334)">
                <g transform="matrix(90,0,0,90,743.163,427.07)">
                    <path d="M0.767,-0.563L0.595,0L0.536,0L0.394,-0.469L0.249,0L0.193,0L0.021,-0.563L0.082,-0.563L0.224,-0.1L0.365,-0.563L0.423,-0.563L0.564,-0.1L0.706,-0.563L0.767,-0.563Z" style="fill:white;fill-rule:nonzero;"/>
                </g>
            </g>
            <g transform="matrix(-0.357764,0.933812,-0.933812,-0.357764,1452.64,-9.5011)">
                <g transform="matrix(90,0,0,90,729.589,494.782)">
                    <path d="M0.106,-0.265C0.109,-0.195 0.127,-0.141 0.161,-0.102C0.195,-0.062 0.242,-0.043 0.303,-0.043C0.347,-0.043 0.385,-0.053 0.417,-0.072C0.449,-0.092 0.475,-0.122 0.495,-0.16L0.549,-0.136C0.527,-0.087 0.494,-0.049 0.452,-0.023C0.41,0.003 0.361,0.016 0.305,0.016C0.25,0.016 0.203,0.003 0.164,-0.022C0.124,-0.047 0.094,-0.082 0.073,-0.127C0.052,-0.171 0.042,-0.223 0.042,-0.28C0.042,-0.34 0.052,-0.392 0.073,-0.437C0.094,-0.482 0.124,-0.516 0.163,-0.541C0.202,-0.566 0.249,-0.578 0.303,-0.578C0.389,-0.578 0.453,-0.55 0.497,-0.494C0.541,-0.438 0.562,-0.361 0.56,-0.265L0.106,-0.265ZM0.303,-0.521C0.245,-0.522 0.199,-0.504 0.166,-0.467C0.133,-0.431 0.114,-0.381 0.108,-0.319L0.497,-0.319C0.491,-0.383 0.472,-0.433 0.44,-0.469C0.408,-0.504 0.362,-0.522 0.303,-0.521Z" style="fill:white;fill-rule:nonzero;"/>
                </g>
            </g>
            <g transform="matrix(-0.50389,0.863768,-0.863768,-0.50389,1539.41,207.098)">
                <g transform="matrix(90,0,0,90,710.229,545.633)">
                    <path d="M0.325,-0.578C0.375,-0.578 0.418,-0.565 0.455,-0.54C0.491,-0.514 0.519,-0.479 0.538,-0.434C0.557,-0.389 0.567,-0.339 0.567,-0.282C0.567,-0.225 0.557,-0.174 0.538,-0.129C0.518,-0.084 0.49,-0.049 0.453,-0.023C0.415,0.003 0.371,0.016 0.32,0.016C0.277,0.016 0.24,0.006 0.207,-0.014C0.175,-0.033 0.148,-0.06 0.128,-0.095L0.128,0L0.073,0L0.073,-0.75L0.133,-0.75L0.133,-0.477C0.154,-0.51 0.181,-0.535 0.213,-0.552C0.245,-0.569 0.283,-0.578 0.325,-0.578ZM0.316,-0.042C0.375,-0.042 0.422,-0.064 0.454,-0.109C0.487,-0.154 0.503,-0.211 0.503,-0.282C0.503,-0.353 0.487,-0.411 0.455,-0.455C0.423,-0.499 0.376,-0.521 0.315,-0.521C0.254,-0.521 0.208,-0.499 0.176,-0.456C0.144,-0.412 0.128,-0.355 0.128,-0.282C0.128,-0.211 0.144,-0.153 0.176,-0.108C0.208,-0.064 0.255,-0.042 0.316,-0.042Z" style="fill:white;fill-rule:nonzero;"/>
                </g>
            </g>
            <g transform="matrix(-0.622662,0.782491,-0.782491,-0.622662,1571.48,427.618)">
                <g transform="matrix(90,0,0,90,682.637,592.715)">
                    <path d="M0.438,-0.404C0.431,-0.445 0.411,-0.475 0.379,-0.494C0.346,-0.513 0.307,-0.522 0.261,-0.522C0.22,-0.522 0.186,-0.513 0.16,-0.495C0.134,-0.477 0.121,-0.453 0.121,-0.425C0.121,-0.385 0.153,-0.356 0.218,-0.339C0.256,-0.327 0.285,-0.319 0.306,-0.315L0.334,-0.307C0.388,-0.293 0.429,-0.275 0.457,-0.252C0.485,-0.228 0.499,-0.196 0.499,-0.154C0.499,-0.1 0.479,-0.058 0.44,-0.029C0.4,0 0.348,0.015 0.282,0.015C0.22,0.015 0.168,0.002 0.124,-0.024C0.08,-0.05 0.053,-0.089 0.042,-0.141L0.103,-0.152C0.112,-0.115 0.134,-0.087 0.168,-0.069C0.202,-0.051 0.241,-0.042 0.286,-0.042C0.33,-0.042 0.365,-0.051 0.393,-0.07C0.421,-0.089 0.435,-0.116 0.435,-0.15C0.435,-0.171 0.43,-0.188 0.42,-0.201C0.41,-0.213 0.397,-0.223 0.381,-0.23C0.364,-0.237 0.342,-0.244 0.315,-0.252L0.205,-0.283C0.159,-0.296 0.123,-0.313 0.097,-0.334C0.071,-0.356 0.058,-0.386 0.058,-0.424C0.058,-0.457 0.068,-0.485 0.087,-0.508C0.107,-0.531 0.133,-0.549 0.165,-0.56C0.197,-0.572 0.231,-0.578 0.268,-0.578C0.31,-0.578 0.348,-0.571 0.382,-0.557C0.415,-0.543 0.443,-0.524 0.463,-0.499C0.484,-0.475 0.495,-0.447 0.499,-0.415L0.438,-0.404Z" style="fill:white;fill-rule:nonzero;"/>
                </g>
            </g>
            <g transform="matrix(-0.697035,0.717037,-0.717037,-0.697035,1558.1,602.384)">
                <g transform="matrix(90,0,0,90,651.787,630.358)">
                    <path d="M0.144,-0.761L0.144,-0.685L0.083,-0.685L0.083,-0.761L0.144,-0.761ZM0.144,-0.563L0.144,0L0.083,0L0.083,-0.563L0.144,-0.563Z" style="fill:white;fill-rule:nonzero;"/>
                </g>
            </g>
            <g transform="matrix(-0.7514,0.659847,-0.659847,-0.7514,1542.56,709.436)">
                <g transform="matrix(90,0,0,90,637.638,645.3)">
                    <path d="M0.197,-0.508L0.197,-0.158C0.197,-0.143 0.198,-0.131 0.199,-0.122C0.2,-0.113 0.203,-0.104 0.208,-0.096C0.214,-0.083 0.223,-0.072 0.235,-0.064C0.248,-0.056 0.262,-0.051 0.278,-0.05C0.284,-0.049 0.294,-0.049 0.308,-0.049C0.328,-0.049 0.35,-0.051 0.372,-0.054L0.372,0C0.352,0.005 0.328,0.007 0.302,0.007C0.292,0.007 0.278,0.007 0.261,0.005C0.209,-0.002 0.174,-0.026 0.154,-0.066C0.145,-0.083 0.14,-0.1 0.139,-0.116C0.137,-0.132 0.136,-0.159 0.136,-0.195L0.136,-0.508L0.01,-0.508L0.01,-0.563L0.136,-0.563L0.136,-0.719L0.197,-0.719L0.197,-0.563L0.372,-0.563L0.372,-0.508L0.197,-0.508Z" style="fill:white;fill-rule:nonzero;"/>
                </g>
            </g>
            <g transform="matrix(-0.82979,0.558076,-0.558076,-0.82979,1492.66,882.387)">
                <g transform="matrix(90,0,0,90,611.769,668.82)">
                    <path d="M0.106,-0.265C0.109,-0.195 0.127,-0.141 0.161,-0.102C0.195,-0.062 0.242,-0.043 0.303,-0.043C0.347,-0.043 0.385,-0.053 0.417,-0.072C0.449,-0.092 0.475,-0.122 0.495,-0.16L0.549,-0.136C0.527,-0.087 0.494,-0.049 0.452,-0.023C0.41,0.003 0.361,0.016 0.305,0.016C0.25,0.016 0.203,0.003 0.164,-0.022C0.124,-0.047 0.094,-0.082 0.073,-0.127C0.052,-0.171 0.042,-0.223 0.042,-0.28C0.042,-0.34 0.052,-0.392 0.073,-0.437C0.094,-0.482 0.124,-0.516 0.163,-0.541C0.202,-0.566 0.249,-0.578 0.303,-0.578C0.389,-0.578 0.453,-0.55 0.497,-0.494C0.541,-0.438 0.562,-0.361 0.56,-0.265L0.106,-0.265ZM0.303,-0.521C0.245,-0.522 0.199,-0.504 0.166,-0.467C0.133,-0.431 0.114,-0.381 0.108,-0.319L0.497,-0.319C0.491,-0.383 0.472,-0.433 0.44,-0.469C0.408,-0.504 0.362,-0.522 0.303,-0.521Z" style="fill:white;fill-rule:nonzero;"/>
                </g>
            </g>
            <g transform="matrix(-0.942086,0.335373,-0.335373,-0.942086,1305.02,1193.74)">
                <g transform="matrix(90,0,0,90,549.439,709.549)">
                    <path d="M0.734,-0.539C0.755,-0.522 0.77,-0.504 0.78,-0.486C0.789,-0.468 0.795,-0.448 0.797,-0.428C0.8,-0.408 0.801,-0.381 0.801,-0.347L0.8,0L0.741,0L0.742,-0.346C0.742,-0.385 0.739,-0.414 0.733,-0.435C0.728,-0.455 0.714,-0.475 0.692,-0.493C0.681,-0.502 0.668,-0.51 0.653,-0.516C0.638,-0.521 0.623,-0.524 0.607,-0.524C0.586,-0.524 0.565,-0.519 0.546,-0.51C0.527,-0.501 0.511,-0.489 0.497,-0.473C0.485,-0.457 0.477,-0.441 0.473,-0.425C0.469,-0.409 0.467,-0.39 0.467,-0.369L0.467,-0.347L0.466,0L0.407,0L0.408,-0.346C0.408,-0.385 0.405,-0.414 0.399,-0.435C0.394,-0.455 0.38,-0.475 0.357,-0.493C0.333,-0.514 0.305,-0.524 0.274,-0.524C0.252,-0.524 0.231,-0.519 0.212,-0.51C0.193,-0.501 0.177,-0.489 0.164,-0.473C0.152,-0.457 0.144,-0.441 0.14,-0.425C0.135,-0.409 0.133,-0.39 0.133,-0.369L0.133,0L0.073,0L0.073,-0.563L0.128,-0.563L0.128,-0.501L0.129,-0.502C0.146,-0.526 0.168,-0.545 0.195,-0.558C0.223,-0.572 0.252,-0.578 0.282,-0.578C0.303,-0.578 0.324,-0.575 0.345,-0.568C0.366,-0.562 0.384,-0.552 0.401,-0.539C0.422,-0.521 0.438,-0.502 0.449,-0.481C0.452,-0.488 0.456,-0.494 0.462,-0.502C0.48,-0.526 0.502,-0.545 0.53,-0.558C0.557,-0.572 0.586,-0.578 0.616,-0.578C0.637,-0.578 0.658,-0.575 0.679,-0.568C0.7,-0.562 0.718,-0.552 0.734,-0.539Z" style="fill:white;fill-rule:nonzero;"/>
                </g>
            </g>
            <g transform="matrix(-0.987529,0.157438,-0.157438,-0.987529,1061.09,1384.86)">
                <g transform="matrix(90,0,0,90,475.694,734.456)">
                    <path d="M0.455,0L0.455,-0.097C0.41,-0.022 0.334,0.016 0.226,0.016C0.173,0.016 0.128,0 0.094,-0.03C0.059,-0.061 0.042,-0.102 0.042,-0.153C0.042,-0.191 0.053,-0.223 0.075,-0.25C0.097,-0.277 0.131,-0.297 0.177,-0.308C0.221,-0.319 0.288,-0.33 0.378,-0.341L0.449,-0.35C0.448,-0.406 0.435,-0.448 0.408,-0.477C0.382,-0.505 0.344,-0.52 0.294,-0.52C0.2,-0.52 0.143,-0.483 0.123,-0.408L0.064,-0.427C0.076,-0.476 0.103,-0.514 0.143,-0.54C0.184,-0.565 0.235,-0.578 0.297,-0.578C0.35,-0.578 0.393,-0.566 0.428,-0.541C0.463,-0.516 0.486,-0.481 0.499,-0.435C0.506,-0.412 0.509,-0.383 0.509,-0.349L0.509,0L0.455,0ZM0.425,-0.144C0.441,-0.175 0.449,-0.226 0.449,-0.296C0.436,-0.294 0.414,-0.291 0.383,-0.289C0.341,-0.284 0.307,-0.279 0.282,-0.276C0.256,-0.272 0.232,-0.267 0.207,-0.26C0.138,-0.241 0.103,-0.205 0.103,-0.153C0.103,-0.118 0.115,-0.091 0.139,-0.07C0.162,-0.05 0.193,-0.04 0.232,-0.04C0.277,-0.04 0.317,-0.048 0.35,-0.066C0.383,-0.084 0.408,-0.11 0.425,-0.144Z" style="fill:white;fill-rule:nonzero;"/>
                </g>
            </g>
            <g transform="matrix(-0.999975,0.00713526,-0.00713526,-0.999975,854.949,1481.94)">
                <g transform="matrix(90,0,0,90,424.831,742.495)">
                    <path d="M0.535,-0.75L0.535,0L0.481,0L0.481,-0.097C0.461,-0.061 0.435,-0.034 0.402,-0.014C0.369,0.006 0.331,0.016 0.289,0.016C0.237,0.016 0.193,0.003 0.156,-0.023C0.119,-0.049 0.09,-0.084 0.071,-0.129C0.051,-0.174 0.042,-0.225 0.042,-0.282C0.042,-0.339 0.051,-0.389 0.07,-0.434C0.089,-0.479 0.117,-0.514 0.154,-0.54C0.19,-0.565 0.233,-0.578 0.283,-0.578C0.326,-0.578 0.363,-0.569 0.395,-0.552C0.428,-0.535 0.454,-0.51 0.475,-0.477L0.475,-0.75L0.535,-0.75ZM0.293,-0.042C0.354,-0.042 0.401,-0.064 0.433,-0.108C0.465,-0.153 0.481,-0.211 0.481,-0.282C0.481,-0.355 0.465,-0.412 0.433,-0.456C0.401,-0.499 0.354,-0.521 0.294,-0.521C0.232,-0.521 0.185,-0.499 0.153,-0.455C0.121,-0.411 0.105,-0.353 0.105,-0.282C0.105,-0.211 0.122,-0.154 0.154,-0.109C0.187,-0.064 0.233,-0.042 0.293,-0.042Z" style="fill:white;fill-rule:nonzero;"/>
                </g>
            </g>
            <g transform="matrix(-0.988261,-0.152775,0.152775,-0.988261,621.926,1533.29)">
                <g transform="matrix(90,0,0,90,369.871,742.753)">
                    <path d="M0.106,-0.265C0.109,-0.195 0.127,-0.141 0.161,-0.102C0.195,-0.062 0.242,-0.043 0.303,-0.043C0.347,-0.043 0.385,-0.053 0.417,-0.072C0.449,-0.092 0.475,-0.122 0.495,-0.16L0.549,-0.136C0.527,-0.087 0.494,-0.049 0.452,-0.023C0.41,0.003 0.361,0.016 0.305,0.016C0.25,0.016 0.203,0.003 0.164,-0.022C0.124,-0.047 0.094,-0.082 0.073,-0.127C0.052,-0.171 0.042,-0.223 0.042,-0.28C0.042,-0.34 0.052,-0.392 0.073,-0.437C0.094,-0.482 0.124,-0.516 0.163,-0.541C0.202,-0.566 0.249,-0.578 0.303,-0.578C0.389,-0.578 0.453,-0.55 0.497,-0.494C0.541,-0.438 0.562,-0.361 0.56,-0.265L0.106,-0.265ZM0.303,-0.521C0.245,-0.522 0.199,-0.504 0.166,-0.467C0.133,-0.431 0.114,-0.381 0.108,-0.319L0.497,-0.319C0.491,-0.383 0.472,-0.433 0.44,-0.469C0.408,-0.504 0.362,-0.522 0.303,-0.521Z" style="fill:white;fill-rule:nonzero;"/>
                </g>
            </g>
            <g transform="matrix(-0.931035,-0.36493,0.36493,-0.931035,307.197,1516.94)">
                <g transform="matrix(90,0,0,90,296.935,729.443)">
                    <path d="M0.325,-0.578C0.375,-0.578 0.418,-0.565 0.455,-0.54C0.491,-0.514 0.519,-0.479 0.538,-0.434C0.557,-0.389 0.567,-0.339 0.567,-0.282C0.567,-0.225 0.557,-0.174 0.538,-0.129C0.518,-0.084 0.49,-0.049 0.453,-0.023C0.415,0.003 0.371,0.016 0.32,0.016C0.277,0.016 0.24,0.006 0.207,-0.014C0.175,-0.033 0.148,-0.06 0.128,-0.095L0.128,0L0.073,0L0.073,-0.75L0.133,-0.75L0.133,-0.477C0.154,-0.51 0.181,-0.535 0.213,-0.552C0.245,-0.569 0.283,-0.578 0.325,-0.578ZM0.316,-0.042C0.375,-0.042 0.422,-0.064 0.454,-0.109C0.487,-0.154 0.503,-0.211 0.503,-0.282C0.503,-0.353 0.487,-0.411 0.455,-0.455C0.423,-0.499 0.376,-0.521 0.315,-0.521C0.254,-0.521 0.208,-0.499 0.176,-0.456C0.144,-0.412 0.128,-0.355 0.128,-0.282C0.128,-0.211 0.144,-0.153 0.176,-0.108C0.208,-0.064 0.255,-0.042 0.316,-0.042Z" style="fill:white;fill-rule:nonzero;"/>
                </g>
            </g>
            <g transform="matrix(-0.869421,-0.494072,0.494072,-0.869421,110.305,1448.33)">
                <g transform="matrix(90,0,0,90,246.543,709.587)">
                    <path d="M0.517,-0.563L0.218,0.25L0.155,0.25L0.248,0L0.019,-0.563L0.083,-0.563L0.277,-0.08L0.454,-0.563L0.517,-0.563Z" style="fill:white;fill-rule:nonzero;"/>
                </g>
            </g>
            <g transform="matrix(-0.740235,-0.672348,0.672348,-0.740235,-127.104,1299.9)">
                <g transform="matrix(90,0,0,90,187.559,674.504)">
                    <path d="M0.646,-0.375C0.646,-0.475 0.624,-0.559 0.581,-0.627C0.538,-0.694 0.476,-0.734 0.394,-0.745C0.372,-0.748 0.34,-0.75 0.297,-0.75L0.073,-0.75L0.073,0L0.297,0C0.34,0 0.372,-0.002 0.394,-0.005C0.476,-0.016 0.538,-0.056 0.581,-0.123C0.624,-0.191 0.646,-0.275 0.646,-0.375ZM0.582,-0.375C0.582,-0.29 0.567,-0.22 0.536,-0.166C0.506,-0.111 0.456,-0.077 0.388,-0.065C0.365,-0.06 0.335,-0.058 0.297,-0.058L0.136,-0.058L0.136,-0.692L0.297,-0.692C0.336,-0.692 0.366,-0.69 0.388,-0.685C0.456,-0.673 0.506,-0.639 0.536,-0.584C0.567,-0.53 0.582,-0.46 0.582,-0.375Z" style="fill:white;fill-rule:nonzero;"/>
                </g>
            </g>
            <g transform="matrix(-0.626742,-0.779227,0.779227,-0.626742,-262.056,1139.46)">
                <g transform="matrix(90,0,0,90,141.879,632.495)">
                    <path d="M0.455,0L0.455,-0.097C0.41,-0.022 0.334,0.016 0.226,0.016C0.173,0.016 0.128,0 0.094,-0.03C0.059,-0.061 0.042,-0.102 0.042,-0.153C0.042,-0.191 0.053,-0.223 0.075,-0.25C0.097,-0.277 0.131,-0.297 0.177,-0.308C0.221,-0.319 0.288,-0.33 0.378,-0.341L0.449,-0.35C0.448,-0.406 0.435,-0.448 0.408,-0.477C0.382,-0.505 0.344,-0.52 0.294,-0.52C0.2,-0.52 0.143,-0.483 0.123,-0.408L0.064,-0.427C0.076,-0.476 0.103,-0.514 0.143,-0.54C0.184,-0.565 0.235,-0.578 0.297,-0.578C0.35,-0.578 0.393,-0.566 0.428,-0.541C0.463,-0.516 0.486,-0.481 0.499,-0.435C0.506,-0.412 0.509,-0.383 0.509,-0.349L0.509,0L0.455,0ZM0.425,-0.144C0.441,-0.175 0.449,-0.226 0.449,-0.296C0.436,-0.294 0.414,-0.291 0.383,-0.289C0.341,-0.284 0.307,-0.279 0.282,-0.276C0.256,-0.272 0.232,-0.267 0.207,-0.26C0.138,-0.241 0.103,-0.205 0.103,-0.153C0.103,-0.118 0.115,-0.091 0.139,-0.07C0.162,-0.05 0.193,-0.04 0.232,-0.04C0.277,-0.04 0.317,-0.048 0.35,-0.066C0.383,-0.084 0.408,-0.11 0.425,-0.144Z" style="fill:white;fill-rule:nonzero;"/>
                </g>
            </g>
            <g transform="matrix(-0.520728,-0.853723,0.853723,-0.520728,-338.115,994.292)">
                <g transform="matrix(90,0,0,90,110.036,592.053)">
                    <path d="M0.168,-0.523C0.184,-0.538 0.203,-0.549 0.226,-0.557C0.248,-0.565 0.27,-0.569 0.293,-0.569C0.308,-0.569 0.323,-0.567 0.336,-0.563L0.336,-0.506C0.321,-0.51 0.307,-0.511 0.293,-0.511C0.255,-0.511 0.222,-0.5 0.196,-0.476C0.169,-0.453 0.152,-0.424 0.144,-0.389C0.137,-0.353 0.133,-0.305 0.133,-0.245L0.133,0L0.073,0L0.073,-0.563L0.128,-0.563L0.128,-0.474C0.139,-0.491 0.152,-0.508 0.168,-0.523Z" style="fill:white;fill-rule:nonzero;"/>
                </g>
            </g>
            <g transform="matrix(-0.423292,-0.905993,0.905993,-0.423292,-380.043,890.262)">
                <g transform="matrix(90,0,0,90,93.3253,566.088)">
                    <path d="M0.475,-0.409C0.461,-0.444 0.439,-0.471 0.408,-0.491C0.378,-0.51 0.343,-0.52 0.303,-0.52C0.239,-0.52 0.19,-0.498 0.157,-0.455C0.124,-0.412 0.107,-0.354 0.106,-0.281C0.107,-0.208 0.124,-0.149 0.157,-0.107C0.191,-0.064 0.239,-0.043 0.303,-0.043C0.343,-0.043 0.377,-0.052 0.407,-0.07C0.436,-0.089 0.459,-0.116 0.474,-0.151L0.533,-0.13C0.512,-0.082 0.481,-0.046 0.442,-0.021C0.403,0.003 0.357,0.016 0.303,0.016C0.22,0.016 0.157,-0.011 0.111,-0.065C0.066,-0.119 0.043,-0.191 0.042,-0.281C0.043,-0.373 0.066,-0.445 0.111,-0.498C0.157,-0.552 0.22,-0.578 0.303,-0.578C0.357,-0.578 0.405,-0.565 0.447,-0.539C0.489,-0.512 0.517,-0.476 0.533,-0.43L0.475,-0.409Z" style="fill:white;fill-rule:nonzero;"/>
                </g>
            </g>
            <g transform="matrix(-0.294281,-0.955719,0.955719,-0.294281,-404.565,743.861)">
                <g transform="matrix(90,0,0,90,72.3574,521.299)">
                    <path d="M0.517,-0.563L0.218,0.25L0.155,0.25L0.248,0L0.019,-0.563L0.083,-0.563L0.277,-0.08L0.454,-0.563L0.517,-0.563Z" style="fill:white;fill-rule:nonzero;"/>
                </g>
            </g>
            <g transform="matrix(-0.0929084,-0.995675,0.995675,-0.0929084,-394.409,551.437)">
                <g transform="matrix(90,0,0,90,53.9837,455.378)">
                    <path d="M0.083,-0.75L0.083,0L0.508,0L0.508,-0.058L0.144,-0.058L0.144,-0.75L0.083,-0.75Z" style="fill:white;fill-rule:nonzero;"/>
                </g>
            </g>
            <g transform="matrix(0.0419928,-0.999118,0.999118,0.0419928,-360.977,440.437)">
                <g transform="matrix(90,0,0,90,49.1802,408.452)">
                    <path d="M0.535,-0.563L0.535,0L0.48,0L0.48,-0.084C0.469,-0.068 0.458,-0.055 0.448,-0.045C0.43,-0.027 0.409,-0.014 0.384,-0.004C0.359,0.006 0.334,0.011 0.308,0.013C0.303,0.013 0.296,0.014 0.286,0.014C0.236,0.014 0.193,0 0.156,-0.027C0.119,-0.054 0.093,-0.09 0.08,-0.133C0.067,-0.177 0.061,-0.229 0.063,-0.289L0.063,-0.563L0.123,-0.563L0.123,-0.29C0.123,-0.235 0.128,-0.191 0.138,-0.157C0.147,-0.122 0.167,-0.095 0.196,-0.074C0.224,-0.055 0.258,-0.045 0.298,-0.045C0.32,-0.045 0.341,-0.048 0.361,-0.055C0.382,-0.062 0.399,-0.072 0.414,-0.085C0.441,-0.11 0.459,-0.144 0.468,-0.188C0.473,-0.21 0.475,-0.239 0.475,-0.276L0.475,-0.563L0.535,-0.563Z" style="fill:white;fill-rule:nonzero;"/>
                </g>
            </g>
            <g transform="matrix(0.196078,-0.980588,0.980588,0.196078,-305.261,334.919)">
                <g transform="matrix(90,0,0,90,51.6288,353.632)">
                    <path d="M0.535,-0.563L0.535,-0.02C0.535,0.018 0.534,0.049 0.53,0.074C0.521,0.139 0.497,0.188 0.458,0.219C0.419,0.25 0.363,0.266 0.292,0.266C0.246,0.266 0.203,0.256 0.164,0.235C0.125,0.215 0.094,0.184 0.071,0.142L0.125,0.109C0.141,0.142 0.164,0.166 0.194,0.182C0.224,0.198 0.256,0.206 0.292,0.206C0.358,0.206 0.405,0.188 0.433,0.151C0.461,0.114 0.475,0.057 0.475,-0.02L0.475,-0.086C0.455,-0.055 0.429,-0.03 0.397,-0.011C0.365,0.007 0.329,0.016 0.289,0.016C0.237,0.016 0.193,0.003 0.156,-0.023C0.119,-0.049 0.09,-0.084 0.071,-0.129C0.051,-0.174 0.042,-0.225 0.042,-0.282C0.042,-0.339 0.051,-0.389 0.07,-0.434C0.089,-0.479 0.117,-0.514 0.154,-0.54C0.19,-0.565 0.233,-0.578 0.283,-0.578C0.328,-0.578 0.368,-0.569 0.401,-0.549C0.434,-0.53 0.461,-0.503 0.481,-0.468L0.481,-0.563L0.535,-0.563ZM0.293,-0.042C0.354,-0.042 0.401,-0.064 0.433,-0.108C0.465,-0.153 0.481,-0.211 0.481,-0.282C0.481,-0.355 0.465,-0.412 0.433,-0.456C0.401,-0.499 0.354,-0.521 0.294,-0.521C0.232,-0.521 0.185,-0.499 0.154,-0.455C0.122,-0.411 0.106,-0.354 0.106,-0.282C0.106,-0.211 0.122,-0.154 0.155,-0.109C0.187,-0.064 0.233,-0.042 0.293,-0.042Z" style="fill:white;fill-rule:nonzero;"/>
                </g>
            </g>
            <g transform="matrix(0.325175,-0.945654,0.945654,0.325175,-241.163,262.196)">
                <g transform="matrix(90,0,0,90,63.1305,300.073)">
                    <path d="M0.197,-0.508L0.197,-0.158C0.197,-0.143 0.198,-0.131 0.199,-0.122C0.2,-0.113 0.203,-0.104 0.208,-0.096C0.214,-0.083 0.223,-0.072 0.235,-0.064C0.248,-0.056 0.262,-0.051 0.278,-0.05C0.284,-0.049 0.294,-0.049 0.308,-0.049C0.328,-0.049 0.35,-0.051 0.372,-0.054L0.372,0C0.352,0.005 0.328,0.007 0.302,0.007C0.292,0.007 0.278,0.007 0.261,0.005C0.209,-0.002 0.174,-0.026 0.154,-0.066C0.145,-0.083 0.14,-0.1 0.139,-0.116C0.137,-0.132 0.136,-0.159 0.136,-0.195L0.136,-0.508L0.01,-0.508L0.01,-0.563L0.136,-0.563L0.136,-0.719L0.197,-0.719L0.197,-0.563L0.372,-0.563L0.372,-0.508L0.197,-0.508Z" style="fill:white;fill-rule:nonzero;"/>
                </g>
            </g>
            <g transform="matrix(0.430184,-0.902741,0.902741,0.430184,-196.873,218.98)">
                <g transform="matrix(90,0,0,90,75.0247,265.44)">
                    <rect x="0.063" y="-0.355" width="0.313" height="0.054" style="fill:white;fill-rule:nonzero;"/>
                </g>
            </g>
            <g transform="matrix(0.544291,-0.838896,0.838896,0.544291,-150.939,181.544)">
                <g transform="matrix(90,0,0,90,91.6292,229.701)">
                    <path d="M0.133,-0.69L0.133,-0.405L0.434,-0.405L0.434,-0.345L0.133,-0.345L0.133,0L0.073,0L0.073,-0.75L0.497,-0.75L0.497,-0.69L0.133,-0.69Z" style="fill:white;fill-rule:nonzero;"/>
                </g>
            </g>
            <g transform="matrix(0.645732,-0.763564,0.763564,0.645732,-105.458,156.369)">
                <g transform="matrix(90,0,0,90,115.784,191.833)">
                    <path d="M0.455,0L0.455,-0.097C0.41,-0.022 0.334,0.016 0.226,0.016C0.173,0.016 0.128,0 0.094,-0.03C0.059,-0.061 0.042,-0.102 0.042,-0.153C0.042,-0.191 0.053,-0.223 0.075,-0.25C0.097,-0.277 0.131,-0.297 0.177,-0.308C0.221,-0.319 0.288,-0.33 0.378,-0.341L0.449,-0.35C0.448,-0.406 0.435,-0.448 0.408,-0.477C0.382,-0.505 0.344,-0.52 0.294,-0.52C0.2,-0.52 0.143,-0.483 0.123,-0.408L0.064,-0.427C0.076,-0.476 0.103,-0.514 0.143,-0.54C0.184,-0.565 0.235,-0.578 0.297,-0.578C0.35,-0.578 0.393,-0.566 0.428,-0.541C0.463,-0.516 0.486,-0.481 0.499,-0.435C0.506,-0.412 0.509,-0.383 0.509,-0.349L0.509,0L0.455,0ZM0.425,-0.144C0.441,-0.175 0.449,-0.226 0.449,-0.296C0.436,-0.294 0.414,-0.291 0.383,-0.289C0.341,-0.284 0.307,-0.279 0.282,-0.276C0.256,-0.272 0.232,-0.267 0.207,-0.26C0.138,-0.241 0.103,-0.205 0.103,-0.153C0.103,-0.118 0.115,-0.091 0.139,-0.07C0.162,-0.05 0.193,-0.04 0.232,-0.04C0.277,-0.04 0.317,-0.048 0.35,-0.066C0.383,-0.084 0.408,-0.11 0.425,-0.144Z" style="fill:white;fill-rule:nonzero;"/>
                </g>
            </g>
            <g transform="matrix(0.722721,-0.69114,0.69114,0.722721,-64.3146,145.9)">
                <g transform="matrix(90,0,0,90,149.676,153.104)">
                    <rect x="0.083" y="-0.766" width="0.06" height="0.766" style="fill:white;fill-rule:nonzero;"/>
                </g>
            </g>
            <g transform="matrix(0.791704,-0.610905,0.610905,0.791704,-50.4122,128.892)">
                <g transform="matrix(90,0,0,90,163.805,138.372)">
                    <path d="M0.073,-0.75L0.133,-0.75L0.133,-0.292L0.4,-0.563L0.483,-0.563L0.205,-0.281L0.523,0L0.43,0L0.133,-0.271L0.133,0L0.073,0L0.073,-0.75Z" style="fill:white;fill-rule:nonzero;"/>
                </g>
            </g>
        </g>
    </g>
</svg>
